<svg fill="none" xmlns="http://www.w3.org/2000/svg" viewBox="0 0 106 60"><g clip-path="url(#a)" fill="#C4C4C4"><path d="M24.146 21.297h-.003c-2.398 0-4.342 1.728-4.342 3.859v.002c0 2.131 1.944 3.859 4.342 3.859h.003c2.398 0 4.342-1.728 4.342-3.859v-.002c0-2.131-1.944-3.859-4.342-3.859ZM56.195 20.064c-.007-2.96-1.333-5.797-3.688-7.89-2.354-2.094-5.547-3.273-8.877-3.28-3.332.006-6.526 1.184-8.882 3.277-2.356 2.094-3.682 4.932-3.69 7.893v16.322s25.134-2.487 25.137-16.32v-.002ZM11 41.744c.006 2.06.93 4.033 2.568 5.49 1.638 1.456 3.859 2.277 6.176 2.283 2.317-.006 4.537-.826 6.176-2.282 1.638-1.456 2.562-3.43 2.568-5.489V30.39S11 32.12 11 41.744Zm8.744 2.035c-.453 0-.895-.12-1.272-.343a2.108 2.108 0 0 1-.843-.913 1.826 1.826 0 0 1-.13-1.176c.088-.395.306-.758.626-1.042.32-.285.728-.478 1.172-.557a2.558 2.558 0 0 1 1.323.116c.419.154.776.415 1.028.75.252.334.386.727.386 1.13a1.84 1.84 0 0 1-.172.78 2.037 2.037 0 0 1-.496.664c-.212.19-.465.34-.744.443a2.541 2.541 0 0 1-.878.155v-.007ZM35.73 40.136V44.4h-.879v-4.265h.88Zm1.7 1.822v.685h-1.94v-.685h1.94Zm.205-1.822v.688H35.49v-.688h2.145Zm4.013 2.033v.202c0 .324-.044.615-.132.873a1.92 1.92 0 0 1-.372.66c-.16.179-.351.317-.574.412a1.83 1.83 0 0 1-.735.144c-.268 0-.513-.048-.736-.144a1.648 1.648 0 0 1-.574-.413 1.93 1.93 0 0 1-.378-.659 2.696 2.696 0 0 1-.132-.873v-.202c0-.326.044-.617.132-.873.088-.258.212-.478.372-.66.162-.181.354-.32.574-.415.223-.096.468-.144.736-.144.27 0 .514.048.735.144.223.095.414.234.574.416.163.181.288.401.375.659.09.256.135.547.135.873Zm-.888.202v-.208c0-.227-.02-.426-.061-.598a1.295 1.295 0 0 0-.182-.433.785.785 0 0 0-.293-.264.838.838 0 0 0-.395-.09c-.149 0-.28.03-.396.09a.792.792 0 0 0-.29.264 1.338 1.338 0 0 0-.178.433 2.593 2.593 0 0 0-.062.598v.208c0 .225.02.424.062.598.04.172.101.317.181.436.08.117.178.206.293.267.115.06.247.09.396.09.148 0 .28-.03.395-.09a.788.788 0 0 0 .29-.267c.078-.119.138-.264.179-.436.04-.174.061-.373.061-.598Zm3.742.914a.565.565 0 0 0-.035-.205.387.387 0 0 0-.124-.17 1.089 1.089 0 0 0-.254-.155 3.587 3.587 0 0 0-.425-.158 5.377 5.377 0 0 1-.551-.211 2.265 2.265 0 0 1-.457-.273 1.23 1.23 0 0 1-.31-.366 1.01 1.01 0 0 1-.112-.483c0-.178.04-.34.117-.484.078-.146.188-.271.328-.375.141-.105.307-.186.498-.243.194-.057.406-.085.636-.085.315 0 .589.057.823.17.235.113.416.269.545.466.131.197.197.423.197.676h-.873a.659.659 0 0 0-.08-.328.535.535 0 0 0-.234-.225.835.835 0 0 0-.393-.082.908.908 0 0 0-.38.07.507.507 0 0 0-.229.185.455.455 0 0 0-.076.258c0 .072.018.137.053.196a.594.594 0 0 0 .164.164c.072.05.16.098.266.143.106.045.228.09.367.132.232.07.436.15.612.237.178.088.326.187.445.296.12.11.21.234.27.372.06.14.09.296.09.472a1.024 1.024 0 0 1-.422.87c-.136.102-.3.179-.489.232-.189.053-.4.079-.635.079a2.41 2.41 0 0 1-.624-.082 1.894 1.894 0 0 1-.56-.255 1.286 1.286 0 0 1-.398-.434c-.1-.175-.15-.383-.15-.624h.882c0 .133.02.245.062.337a.563.563 0 0 0 .172.223.744.744 0 0 0 .27.123c.105.025.22.038.346.038a.939.939 0 0 0 .375-.064.463.463 0 0 0 .293-.437Zm3.383-3.15v4.266h-.875v-4.265h.875Zm1.313 0v.69h-3.48v-.69h3.48Zm3.363 3.58v.686h-2.27v-.685h2.27Zm-1.983-3.58v4.266h-.88v-4.265h.88Zm1.687 1.738v.668h-1.974v-.668h1.974Zm.293-1.737v.688h-2.267v-.688h2.267Zm.516 0h1.59c.327 0 .607.048.842.146.236.098.417.242.544.434.127.191.19.426.19.706 0 .228-.038.425-.116.589a1.103 1.103 0 0 1-.326.407 1.685 1.685 0 0 1-.489.258l-.278.146h-1.383l-.006-.685h1.029a.804.804 0 0 0 .383-.082.538.538 0 0 0 .229-.229.704.704 0 0 0 .079-.34.771.771 0 0 0-.076-.354.514.514 0 0 0-.232-.229.855.855 0 0 0-.39-.079h-.711v3.577h-.88v-4.265Zm2.385 4.265-.973-1.901.929-.006.984 1.866v.041h-.94Zm4.614-1.52h-1.087v-.686h1.087a.892.892 0 0 0 .41-.082.526.526 0 0 0 .232-.234.858.858 0 0 0 0-.691.591.591 0 0 0-.232-.264.76.76 0 0 0-.41-.1h-.782v3.577h-.88v-4.265h1.662c.334 0 .62.06.858.181.24.12.424.284.551.495.127.211.19.453.19.724 0 .275-.063.514-.19.715-.127.201-.31.356-.55.466-.239.109-.525.164-.86.164Zm5.068.835v.685h-2.27v-.685h2.27Zm-1.983-3.58V44.4h-.879v-4.265h.879Zm1.687 1.737v.668h-1.974v-.668h1.974Zm.293-1.737v.688h-2.267v-.688h2.267Zm2.482 0V44.4h-.876v-4.265h.876Zm1.312 0v.688h-3.48v-.688h3.48Zm3.364 3.58v.685h-2.27v-.685h2.27Zm-1.984-3.58V44.4h-.879v-4.265h.88ZM72 41.873v.668h-1.975v-.668H72Zm.293-1.737v.688h-2.268v-.688h2.268Zm.515 0H74.4c.326 0 .607.048.84.146.237.098.419.242.546.434.127.191.19.426.19.706 0 .228-.039.425-.117.589a1.103 1.103 0 0 1-.325.407 1.687 1.687 0 0 1-.49.258l-.278.146h-1.383l-.005-.685h1.028a.804.804 0 0 0 .384-.082.538.538 0 0 0 .228-.229.704.704 0 0 0 .08-.34.771.771 0 0 0-.077-.354.514.514 0 0 0-.231-.229.855.855 0 0 0-.39-.079h-.712v3.577h-.879v-4.265Zm2.385 4.265L74.22 42.5l.93-.006.983 1.866v.041h-.94Zm3.68-1.116a.565.565 0 0 0-.035-.205.387.387 0 0 0-.123-.17 1.089 1.089 0 0 0-.255-.155 3.587 3.587 0 0 0-.425-.158 5.377 5.377 0 0 1-.55-.211 2.265 2.265 0 0 1-.458-.273 1.23 1.23 0 0 1-.31-.366 1.01 1.01 0 0 1-.112-.483c0-.178.04-.34.117-.484.079-.146.188-.271.329-.375.14-.105.306-.186.498-.243.193-.057.405-.085.635-.085.315 0 .59.057.823.17.235.113.416.269.545.466.131.197.197.423.197.676h-.873a.659.659 0 0 0-.08-.328.535.535 0 0 0-.234-.225.835.835 0 0 0-.392-.082.908.908 0 0 0-.381.07.507.507 0 0 0-.229.185.455.455 0 0 0-.076.258c0 .072.018.137.053.196a.594.594 0 0 0 .164.164c.072.05.161.098.267.143.105.045.227.09.366.132.232.07.436.15.612.237.178.088.326.187.445.296.12.11.21.234.27.372.06.14.09.296.09.472 0 .186-.035.352-.108.498-.072.147-.177.27-.313.372-.137.102-.3.179-.49.232-.189.053-.4.079-.635.079-.211 0-.42-.028-.624-.082a1.894 1.894 0 0 1-.56-.255 1.286 1.286 0 0 1-.398-.434c-.1-.175-.15-.383-.15-.624h.882c0 .133.02.245.062.337a.563.563 0 0 0 .172.223.744.744 0 0 0 .27.123c.106.025.22.038.346.038a.939.939 0 0 0 .375-.064.463.463 0 0 0 .293-.437Z"/></g><defs><clipPath id="a"><path fill="#fff" d="M0 0h106v60H0z"/></clipPath></defs></svg>